<svg width="200" height="200" viewBox="0 0 200 200" fill="none" xmlns="http://www.w3.org/2000/svg">
  <!-- 귀 -->
  <path d="M50 60C40 40 20 35 10 45C0 55 10 80 30 90" fill="#FFD6EC" stroke="#333" stroke-width="3" stroke-linecap="round"/>
  <path d="M150 60C160 40 180 35 190 45C200 55 190 80 170 90" fill="#FFD6EC" stroke="#333" stroke-width="3" stroke-linecap="round"/>
  
  <!-- 얼굴 -->
  <circle cx="100" cy="110" r="70" fill="#FFD6EC" stroke="#333" stroke-width="3"/>
  
  <!-- 눈 -->
  <circle cx="70" cy="95" r="10" fill="white" stroke="#333" stroke-width="2"/>
  <circle cx="130" cy="95" r="10" fill="white" stroke="#333" stroke-width="2"/>
  <circle cx="70" cy="95" r="5" fill="#333"/>
  <circle cx="130" cy="95" r="5" fill="#333"/>
  
  <!-- 코 -->
  <ellipse cx="100" cy="115" rx="15" ry="10" fill="#333"/>
  
  <!-- 입 -->
  <path d="M85 130C90 140 110 140 115 130" stroke="#333" stroke-width="3" stroke-linecap="round"/>
  
  <!-- 볼 -->
  <circle cx="65" cy="120" r="10" fill="#FFB6C1" fill-opacity="0.6"/>
  <circle cx="135" cy="120" r="10" fill="#FFB6C1" fill-opacity="0.6"/>
  
  <!-- 하트 -->
  <path d="M100 155L110 145C115 140 125 140 130 145C135 150 135 160 130 165L100 185L70 165C65 160 65 150 70 145C75 140 85 140 90 145L100 155Z" fill="#FF8FA3" stroke="#333" stroke-width="2"/>
</svg>
